<?xml version="1.0" encoding="utf-8"?>
<!-- Generator: Adobe Illustrator 23.0.1, SVG Export Plug-In . SVG Version: 6.00 Build 0)  -->
<svg version="1.1" id="Layer_1" xmlns="http://www.w3.org/2000/svg" xmlns:xlink="http://www.w3.org/1999/xlink" x="0px" y="0px"
	 viewBox="0 0 683.97 212.45" style="enable-background:new 0 0 683.97 212.45;" xml:space="preserve">
<style type="text/css">
	.st0{fill:#F78E1E;}
</style>
<g>
	<path class="st0" d="M459.6,175.6c10.18,0,18.43,8.25,18.43,18.43c0,10.18-8.25,18.43-18.43,18.43c-10.18,0-18.43-8.25-18.43-18.43
		C441.17,183.85,449.42,175.6,459.6,175.6"/>
	<path class="st0" d="M459.6,117.07c10.18,0,18.43,8.25,18.43,18.43c0,10.18-8.25,18.43-18.43,18.43
		c-10.18,0-18.43-8.25-18.43-18.43C441.17,125.32,449.42,117.07,459.6,117.07"/>
	<path class="st0" d="M459.6,58.53c10.18,0,18.43,8.25,18.43,18.43c0,10.18-8.25,18.43-18.43,18.43c-10.18,0-18.43-8.25-18.43-18.43
		C441.17,66.78,449.42,58.53,459.6,58.53"/>
	<path class="st0" d="M459.6,0c10.18,0,18.43,8.25,18.43,18.43c0,10.18-8.25,18.43-18.43,18.43c-10.18,0-18.43-8.25-18.43-18.43
		C441.17,8.25,449.42,0,459.6,0"/>
	<path d="M598.61,130.03v21.72h-77.15c-0.51-8.56,2.05-15.98,6.4-21.98c7.42-10.35,20.22-17.13,31.6-24.03
		c4.61-2.81,12.03-6.39,12.03-12.91c0-8.05-4.73-10.87-10.75-10.87c-10.24,0-13.69,7.41-13.43,18.28h-24.05
		c-1.41-24.41,13.82-38.47,37.75-38.47c21.62,0,36.34,9.07,36.34,27.99c0,22.75-22.26,29.9-39.02,40.13v0.13H598.61z M671.94,134.12
		v17.64h-26.62v-17.64h-39.54v-24.02l40.69-47.29h25.46v49.59h12.03v21.73H671.94z M645.33,87.47l-21.75,24.92h21.75V87.47z"/>
	<path d="M57.65,67.85c0-2.77-1.4-4.16-4.2-4.16h-2.51c-2.55,0-4.39,1.38-5.55,4.12l-12.3,30.42c-1.05,2.53-2.47,3.79-4.31,3.79
		c-1.81,0-3.23-1.24-4.26-3.73L12.2,67.88c-1.14-2.78-2.98-4.18-5.52-4.18H4.19C1.41,63.7,0,65.09,0,67.85v78.95
		c0,2.77,1.35,4.16,4.07,4.16c2.7,0,4.08-1.39,4.08-4.16V96.92c0-2.52,0.82-4.03,2.46-4.53c1.55-0.38,2.87,0.76,4.02,3.4
		l10.59,24.74c1.04,2.54,2.24,3.77,3.66,3.77c1.41,0,2.63-1.23,3.64-3.77L43.1,95.8c1.14-2.64,2.53-3.78,4.16-3.4
		c1.52,0.49,2.27,2.01,2.27,4.53v49.88c0,2.77,1.36,4.16,4.07,4.16c2.69,0,4.05-1.39,4.05-4.16V67.85z M139.1,133.01
		c-1.03-0.64-2.12-0.81-3.27-0.57c-1.02,0.25-1.93,0.89-2.71,1.89c-4.75,6.8-10.59,10.21-17.55,10.21c-6.05,0-10.94-2.2-14.66-6.6
		c-3.48-4.03-5.21-8.94-5.21-14.74v-3.97c0-5.53,2.84-8.29,8.5-8.29h18.15c2.82,0,4.23-1.21,4.23-3.61c0-2.39-1.41-3.6-4.23-3.6
		H104.2c-5.66,0-8.5-2.76-8.5-8.31v-3.97c0-5.79,1.8-10.8,5.4-15.01c3.61-4.22,8.43-6.33,14.48-6.33c6.95,0,12.67,3.39,17.16,10.19
		c0.65,1.01,1.54,1.57,2.71,1.7c1.28,0.25,2.37,0.05,3.27-0.57c2.18-1.51,2.62-3.46,1.34-5.84c-4.73-9.18-12.87-13.77-24.42-13.77
		c-8.46,0-15.39,2.93-20.78,8.79c-5.4,5.86-8.09,12.82-8.09,20.86v31.74c0,8.04,2.64,14.91,7.9,20.58
		c5.51,6.04,12.51,9.05,20.97,9.05c11.66,0,19.94-4.65,24.8-13.96C141.75,136.48,141.29,134.52,139.1,133.01 M227.7,91.46
		c0-7.93-2.7-14.55-8.06-19.84c-5.39-5.28-12.3-7.93-20.76-7.93h-20.36c-5.66,0-8.45,2.77-8.45,8.32v70.64
		c0,5.54,2.79,8.32,8.45,8.32h20.36c8.46,0,15.37-2.64,20.76-7.95c5.37-5.29,8.06-11.89,8.06-19.82V91.46z M213.37,137.73
		c-3.61,4.02-8.42,6.05-14.49,6.05h-11.39c-5.69,0-8.51-2.78-8.51-8.32V79.2c0-5.54,2.81-8.3,8.51-8.3h11.39
		c6.07,0,10.88,2.02,14.49,6.04c3.62,4.03,5.43,8.88,5.43,14.54v31.72C218.8,128.86,216.99,133.7,213.37,137.73 M308.51,143.78
		h-11.7c-5.62,0-8.44-2.78-8.44-8.32V79.2c0-5.54,2.84-8.3,8.49-8.3h5.4c2.85,0,4.27-1.21,4.27-3.6c0-2.39-1.42-3.6-4.27-3.6h-36.71
		c-2.83,0-4.26,1.21-4.26,3.6c0,2.39,1.43,3.6,4.26,3.6h5.41c5.65,0,8.47,2.77,8.47,8.3v56.26c0,5.54-2.79,8.32-8.42,8.32h-11.71
		c-2.82,0-4.21,1.2-4.21,3.59c0,2.4,1.4,3.6,4.22,3.6h49.18c2.82,0,4.24-1.21,4.24-3.6C312.74,144.98,311.32,143.78,308.51,143.78
		 M397.77,91.48c0-8.06-2.7-15.02-8.06-20.88c-5.4-5.86-12.3-8.79-20.77-8.79c-8.43,0-15.38,2.93-20.74,8.79
		c-5.37,5.86-8.08,12.82-8.08,20.88v55.33c0,2.77,1.4,4.16,4.17,4.16h0.58c2.79,0,4.17-1.39,4.17-4.16v-27.57
		c0-5.53,2.83-8.29,8.49-8.29h22.8c5.68,0,8.52,2.76,8.52,8.29v27.57c0,2.77,1.4,4.16,4.17,4.16h0.57c2.78,0,4.17-1.39,4.17-4.16
		V91.48z M380.34,103.74h-22.8c-5.67,0-8.49-2.76-8.49-8.31v-3.97c0-5.79,1.8-10.8,5.4-15.01c3.62-4.22,8.44-6.33,14.49-6.33
		c6.08,0,10.89,2.11,14.5,6.33c3.61,4.21,5.43,9.22,5.43,15.01v3.97C388.86,100.97,386.02,103.74,380.34,103.74"/>
</g>
</svg>
